<svg width="118" height="32" viewBox="0 0 118 32" fill="none" xmlns="http://www.w3.org/2000/svg">
<g clip-path="url(#clip0_102_128)">
<path d="M15.4 15L12.4 6H11L8 15H15.4ZM8.2 0H15.5L23.8 24.1H18.4L17 19.8H6.6L5.2 24.1H0L8.2 0Z" fill="black"/>
<path d="M26.5 5.9H32V7.9H32.7C33.5 6.7 35.1 5.5 37.8 5.5C41.1 5.5 44.6 8.2 44.6 12V24.1H39V13.6C39 11.7 37.8 10.4 35.8 10.4C33.8 10.4 31.9 12 31.9 13.9V24.1H26.4V5.9H26.5Z" fill="black"/>
<path d="M49.3 27.3H51.4C52.8 27.3 53.7 26.5 54.1 25.3L54.4 24.4L47.2 5.90002H52.8L56.8 17.4H57.5L61.3 5.90002H66.9L59.2 26.7C58 30 55.7 32 51.9 32H49.3V27.3Z" fill="black"/>
<path fill-rule="evenodd" clip-rule="evenodd" d="M112.8 15C112.8 15.9 112.5 16.8 112 17.5C111.5 18.2 110.8 18.8 110 19.2C109.2 19.5 108.3 19.6 107.4 19.5C106.5 19.3 105.7 18.9 105.1 18.3C104.5 17.7 104 16.9 103.9 16C103.7 15.1 103.8 14.2 104.2 13.4C104.5 12.6 105.1 11.9 105.9 11.4C106.7 10.9 107.5 10.6 108.4 10.6C109.6 10.6 110.7 11.1 111.6 11.9C112.4 12.7 112.8 13.8 112.8 15ZM108.3 24.5C110.2 24.5 112 23.9 113.6 22.9C115.2 21.9 116.4 20.4 117.1 18.6C117.8 16.8 118 14.9 117.6 13.1C117.2 11.3 116.3 9.59999 115 8.19999C113.7 6.79999 112 5.99999 110.1 5.59999C108.3 5.19999 106.3 5.39999 104.6 6.09999C102.9 6.79999 101.4 7.99999 100.3 9.59999C99.3 11.2 98.7 13 98.7 14.9C98.7 17.4 99.7 19.8 101.5 21.6C103.4 23.5 105.8 24.5 108.3 24.5Z" fill="black"/>
<path d="M71.4 24.3C73.8 23.5 75 21 74.3 18.6C73.5 16.2 71 15 68.6 15.7C66.2 16.5 65 19 65.7 21.4C66.5 23.8 69.1 25.1 71.4 24.3Z" fill="#00629A"/>
<path fill-rule="evenodd" clip-rule="evenodd" d="M91.6 15C91.6 15.9 91.3 16.8 90.8 17.5C90.3 18.2 89.6 18.8 88.8 19.1C88 19.4 87.1 19.5 86.2 19.4C85.3 19.2 84.5 18.8 83.9 18.2C83.3 17.6 82.8 16.8 82.7 15.9C82.5 15 82.6 14.1 83 13.3C83.3 12.5 83.9 11.8 84.6 11.3C85.3 10.8 86.2 10.5 87.1 10.5C88.3 10.5 89.4 11 90.3 11.8C91.1 12.7 91.6 13.8 91.6 15ZM81.6 23.3C83 24.1 84.6 24.6 86.4 24.6C88.4 24.6 90 24.2 91.3 23.4C91.4 23.3 91.6 23.2 91.7 23.1V24.1H96.1V0H91.1V6.7C89.9 6 88.4 5.6 86.6 5.6C84.7 5.6 83.1 6 81.7 6.8C80.3 7.6 79.2 8.8 78.4 10.2C77.6 11.7 77.2 13.4 77.2 15.1C77.2 16.8 77.6 18.4 78.3 19.9C79.2 21.3 80.3 22.5 81.6 23.3Z" fill="black"/>
</g>
<defs>
<clipPath id="clip0_102_128">
<rect width="118" height="32" fill="white"/>
</clipPath>
</defs>
</svg>
